<svg xmlns="http://www.w3.org/2000/svg" width="194" height="20" fill="none" viewBox="0 0 194 20"><path fill="#fff" d="M10.536 18.816H8.448V10.2H2.112v8.616H0V.48h2.112v7.488h6.336V.48h2.088zm12.79 0h-7.944v-2.112h2.928V2.592h-2.928V.48h7.944v2.112h-2.928v14.112h2.928zm15.227-5.304q0 1.32-.384 2.4a5.1 5.1 0 0 1-1.128 1.824q-.72.744-1.776 1.152-1.032.432-2.352.432-2.64 0-4.128-1.68-1.464-1.704-1.584-4.872h2.064q0 2.04 1.008 3.192 1.032 1.128 2.736 1.128 1.536 0 2.496-.888t.96-2.424q0-.888-.288-1.392a2.1 2.1 0 0 0-.864-.84q-.552-.336-1.368-.576a411 411 0 0 0-1.872-.6 20 20 0 0 1-1.848-.696 5.5 5.5 0 0 1-1.392-.912 3.9 3.9 0 0 1-.864-1.32q-.288-.792-.288-1.992 0-1.224.36-2.208a4.9 4.9 0 0 1 1.032-1.728q.672-.72 1.584-1.104A5.1 5.1 0 0 1 32.721 0q2.568 0 3.984 1.536t1.416 4.368v.048h-2.064q-.12-1.848-.984-2.808-.84-.96-2.28-.96-1.368 0-2.184.792-.792.792-.792 2.112 0 .816.192 1.32.216.504.672.84t1.176.576q.744.216 1.776.504 1.176.312 2.088.672t1.536.912.96 1.416.336 2.184m13.678 5.304h-2.088V10.2h-6.336v8.616h-2.112V.48h2.112v7.488h6.336V.48h2.088zm15.766 0h-2.16l-1.656-5.4H57.87l-1.656 5.4h-2.112L59.885.456h2.304zm-4.512-7.392-2.448-8.328-2.448 8.328zm17.35 7.392H79.06V2.184l-2.952 16.632h-1.944L71.187 2.184v16.632h-1.752V.48h2.808l2.88 16.176L78.051.48h2.784zm27.412 0h-2.4q-.288-.6-.408-2.496l-.12-2.376q-.048-1.008-.216-1.608t-.552-.888q-.36-.312-1.008-.408a11 11 0 0 0-1.584-.096h-2.16v7.872h-2.136V.48h5.304q2.376 0 3.576 1.344t1.2 3.888q0 3.048-2.088 4.152.528.192.84.48.336.288.504.696.192.408.264.96.072.528.12 1.248l.168 2.952q.048.84.168 1.344.144.504.528.768zM105.559 5.76q0-.888-.216-1.464a1.94 1.94 0 0 0-.6-.912q-.384-.36-.984-.504a6 6 0 0 0-1.392-.144h-2.568V9h2.424q1.632 0 2.472-.696.864-.696.864-2.544m18.43 13.056h-2.16l-1.656-5.4h-6.312l-1.656 5.4h-2.112l5.784-18.36h2.304zm-4.512-7.392-2.448-8.328-2.448 8.328zm17.326 2.088q0 1.32-.384 2.4a5.1 5.1 0 0 1-1.128 1.824q-.72.744-1.776 1.152-1.032.432-2.352.432-2.64 0-4.128-1.68-1.464-1.704-1.584-4.872h2.064q0 2.04 1.008 3.192 1.032 1.128 2.736 1.128 1.536 0 2.496-.888t.96-2.424q0-.888-.288-1.392a2.1 2.1 0 0 0-.864-.84q-.552-.336-1.368-.576a411 411 0 0 0-1.872-.6 20 20 0 0 1-1.848-.696 5.5 5.5 0 0 1-1.392-.912 3.9 3.9 0 0 1-.864-1.32q-.288-.792-.288-1.992 0-1.224.36-2.208a4.9 4.9 0 0 1 1.032-1.728q.672-.72 1.584-1.104A5.1 5.1 0 0 1 130.971 0q2.568 0 3.984 1.536t1.416 4.368v.048h-2.064q-.12-1.848-.984-2.808-.84-.96-2.28-.96-1.368 0-2.184.792-.792.792-.792 2.112 0 .816.192 1.32.216.504.672.84t1.176.576q.744.216 1.776.504 1.176.312 2.088.672t1.536.912.96 1.416.336 2.184m13.678 5.304h-2.088V10.2h-6.336v8.616h-2.112V.48h2.112v7.488h6.336V.48h2.088zm13.846 0h-10.032V.48h9.84v2.232h-7.752v5.472h7.08v2.088h-7.08v6.312h7.944zm14.086 0h-10.032V.48h9.84v2.232h-7.752v5.472h7.08v2.088h-7.08v6.312h7.944zm14.638-9.168q0 4.464-1.536 6.816t-4.344 2.352h-5.256V.48h5.256q5.88 0 5.88 9.168m-2.184 0q0-1.872-.24-3.192-.216-1.344-.696-2.16-.456-.84-1.2-1.224-.72-.384-1.728-.384h-2.976v13.92h2.976q1.992 0 2.928-1.704t.936-5.256"/></svg>